<svg xmlns:xlink="http://www.w3.org/1999/xlink" width="73" xmlns="http://www.w3.org/2000/svg" height="75" id="screenshot-2f182ae6-3761-807c-8003-1ab1b2dffbe0" viewBox="0 0 73 75" style="-webkit-print-color-adjust: exact;" fill="none" version="1.1"><g id="shape-2f182ae6-3761-807c-8003-1ab1b2dffbe0" rx="0" ry="0"><g id="shape-2f182ae6-3761-807c-8003-1ab1b2dffc05"><g class="fills" id="fills-2f182ae6-3761-807c-8003-1ab1b2dffc05"><ellipse rx="14.30965909090935" ry="14.29558011049724" cx="39.19602272727309" cy="39.157458563535926" transform="matrix(1.000000, 0.000000, 0.000000, 1.000000, 0.000000, 0.000000)" style="fill: rgb(255, 255, 255); fill-opacity: 1;"/></g></g><g id="shape-2f182ae6-3761-807c-8003-1ab1b2dffc06"><g class="fills" id="fills-2f182ae6-3761-807c-8003-1ab1b2dffc06"><ellipse rx="12.443181818181984" ry="12.430939226519342" cx="12.443181818181984" cy="12.430939226519342" transform="matrix(1.000000, 0.000000, 0.000000, 1.000000, 0.000000, 0.000000)" style="fill: rgb(255, 255, 255); fill-opacity: 1;"/></g></g><g id="shape-2f182ae6-3761-807c-8003-1ab1b2dffc07"><g class="fills" id="fills-2f182ae6-3761-807c-8003-1ab1b2dffc07"><ellipse rx="9.747159090909122" ry="9.737569060773467" cx="63.25284090909088" cy="63.19060773480663" transform="matrix(1.000000, 0.000000, 0.000000, 1.000000, 0.000000, 0.000000)" style="fill: rgb(255, 255, 255); fill-opacity: 1;"/></g></g><g id="shape-2f182ae6-3761-807c-8003-1ab1b2dffc08"><g class="fills" id="fills-2f182ae6-3761-807c-8003-1ab1b2dffc08"><ellipse rx="9.747159090909122" ry="9.737569060773467" cx="9.747159090909122" cy="63.19060773480663" transform="matrix(1.000000, 0.000000, 0.000000, 1.000000, 0.000000, 0.000000)" style="fill: rgb(255, 255, 255); fill-opacity: 1;"/></g></g><g id="shape-2f182ae6-3761-807c-8003-1ab1b2dffc09"><g class="fills" id="fills-2f182ae6-3761-807c-8003-1ab1b2dffc09"><ellipse rx="6.221590909090878" ry="6.215469613259671" cx="66.77840909090912" cy="18.646408839779014" transform="matrix(1.000000, 0.000000, 0.000000, 1.000000, 0.000000, 0.000000)" style="fill: rgb(255, 255, 255); fill-opacity: 1;"/></g></g><g id="shape-2f182ae6-3761-807c-8003-1ab1b2dffc0a"><g class="fills" id="fills-2f182ae6-3761-807c-8003-1ab1b2dffc0a"><ellipse rx="6.221590909090878" ry="6.215469613259671" cx="45.210227272727366" cy="10.773480662983431" transform="matrix(1.000000, 0.000000, 0.000000, 1.000000, 0.000000, 0.000000)" style="fill: rgb(255, 255, 255); fill-opacity: 1;"/></g></g><g id="shape-2f182ae6-3761-807c-8003-1ab1b2dffc0b"><g class="fills" id="fills-2f182ae6-3761-807c-8003-1ab1b2dffc0b"><ellipse rx="6.221590909090992" ry="6.215469613259671" cx="42.72159090909099" cy="68.78453038674036" transform="matrix(1.000000, 0.000000, 0.000000, 1.000000, 0.000000, 0.000000)" style="fill: rgb(255, 255, 255); fill-opacity: 1;"/></g></g><g id="shape-2f182ae6-3761-807c-8003-1ab1b2dffc0c"><g class="fills" id="fills-2f182ae6-3761-807c-8003-1ab1b2dffc0c"><path rx="0" ry="0" d="M44.795,10.773L12.028,12.431L63.460,63.398L47.699,67.541"/></g><g id="strokes-2f182ae6-3761-807c-8003-1ab1b2dffc0c" class="strokes"><g class="stroke-shape"><path rx="0" ry="0" d="M44.795,10.773L12.028,12.431L63.460,63.398L47.699,67.541" style="fill: none; stroke-width: 3; stroke: rgb(255, 255, 255); stroke-opacity: 1;"/></g></g></g><g id="shape-2f182ae6-3761-807c-8003-1ab1b2dffc0d"><g class="fills" id="fills-2f182ae6-3761-807c-8003-1ab1b2dffc0d"><path rx="0" ry="0" d="M9.955,62.983L38.574,39.779L66.778,18.646"/></g><g id="strokes-2f182ae6-3761-807c-8003-1ab1b2dffc0d" class="strokes"><g class="stroke-shape"><path rx="0" ry="0" d="M9.955,62.983L38.574,39.779L66.778,18.646" style="fill: none; stroke-width: 3; stroke: rgb(255, 255, 255); stroke-opacity: 1;"/></g></g></g></g></svg>